<?xml version="1.0" standalone="no"?>
<!DOCTYPE svg PUBLIC "-//W3C//DTD SVG 20010904//EN"
 "http://www.w3.org/TR/2001/REC-SVG-20010904/DTD/svg10.dtd">
<svg version="1.0" xmlns="http://www.w3.org/2000/svg"
 width="145.000000pt" height="90.000000pt" viewBox="0 0 145.000000 90.000000"
 preserveAspectRatio="xMidYMid meet">

<g transform="translate(0.000000,90.000000) scale(0.100000,-0.100000)"
fill="#000000" stroke="none">
<path d="M920 697 c-30 -15 -49 -61 -34 -85 6 -9 31 -27 57 -40 51 -24 57 -36
29 -51 -13 -7 -27 -6 -45 4 -22 11 -28 11 -42 -5 -14 -15 -14 -18 0 -30 8 -7
34 -15 58 -17 54 -6 97 24 97 67 0 34 -18 55 -65 71 -24 9 -35 19 -35 32 0 17
5 19 39 14 58 -7 82 20 36 41 -33 15 -64 15 -95 -1z"/>
<path d="M692 588 l3 -113 75 0 c70 0 75 1 78 23 3 20 0 22 -47 22 -48 0 -51
2 -51 25 0 23 4 25 45 25 38 0 45 3 45 20 0 17 -7 20 -45 20 -41 0 -45 2 -45
25 0 23 3 25 50 25 43 0 50 3 50 20 0 18 -7 20 -80 20 l-81 0 3 -112z"/>
<path d="M1082 588 c3 -109 4 -113 26 -116 22 -3 22 -2 22 112 l0 116 -25 0
-26 0 3 -112z"/>
<path d="M1160 430 c0 -5 5 -10 10 -10 6 0 10 5 10 10 0 6 -4 10 -10 10 -5 0
-10 -4 -10 -10z"/>
<path d="M860 370 l0 -60 33 0 c51 0 60 11 52 61 -8 49 -18 59 -57 59 -27 0
-28 -1 -28 -60z m54 44 c25 -10 19 -34 -9 -34 -18 0 -25 5 -25 20 0 21 8 24
34 14z m24 -71 c-2 -11 -14 -19 -31 -21 -22 -3 -27 1 -27 17 0 17 6 21 31 21
24 0 30 -4 27 -17z"/>
<path d="M982 350 c1 -39 2 -40 5 -11 3 22 11 35 24 38 27 7 24 18 -6 18 -23
0 -25 -3 -23 -45z"/>
<path d="M1052 376 c-16 -36 8 -64 53 -63 34 1 35 2 35 42 0 41 0 42 -38 43
-32 1 -41 -3 -50 -22z m58 -1 c18 -21 5 -47 -22 -43 -26 3 -37 36 -16 49 18
12 24 11 38 -6z"/>
<path d="M1160 355 c0 -25 5 -45 10 -45 6 0 10 20 10 45 0 25 -4 45 -10 45 -5
0 -10 -20 -10 -45z"/>
<path d="M1201 350 c1 -44 1 -44 9 -12 9 39 11 41 38 47 18 3 23 -3 30 -38
l10 -42 1 36 c1 44 -15 59 -57 56 -31 -2 -32 -3 -31 -47z"/>
</g>
</svg>
